<?xml version="1.0" standalone="no"?>
<!DOCTYPE svg PUBLIC "-//W3C//DTD SVG 20010904//EN"
 "http://www.w3.org/TR/2001/REC-SVG-20010904/DTD/svg10.dtd">
<svg version="1.0" xmlns="http://www.w3.org/2000/svg"
 width="1000.000000pt" height="1000.000000pt" viewBox="0 0 1000.000000 1000.000000"
 preserveAspectRatio="xMidYMid meet">
<metadata>
Created by potrace 1.14, written by Peter Selinger 2001-2017
</metadata>
<g transform="translate(0.000000,1000.000000) scale(0.100000,-0.100000)"
fill="#000000" stroke="none">
<path d="M4827 9644 c-1 -1 -59 -5 -129 -8 -70 -4 -137 -9 -150 -11 -34 -5
-138 -17 -178 -21 -52 -4 -300 -50 -420 -78 -831 -191 -1603 -617 -2215 -1222
-113 -112 -250 -261 -320 -349 -22 -27 -43 -52 -46 -55 -15 -14 -171 -229
-239 -330 -152 -227 -343 -585 -424 -795 -15 -38 -33 -83 -41 -100 -46 -102
-171 -511 -191 -625 -3 -14 -11 -52 -19 -85 -17 -73 -52 -270 -61 -345 -3 -30
-8 -68 -10 -85 -32 -269 -37 -718 -9 -980 11 -111 16 -154 20 -176 2 -13 6
-42 10 -64 5 -34 22 -135 40 -240 3 -16 24 -103 45 -191 327 -1331 1235 -2453
2475 -3060 157 -76 461 -204 486 -204 6 0 25 -6 42 -14 47 -21 295 -96 363
-111 10 -2 57 -13 104 -24 89 -21 96 -22 195 -40 108 -19 119 -21 165 -27 25
-3 54 -8 65 -10 10 -2 49 -6 85 -10 36 -3 79 -8 95 -10 229 -28 722 -23 974
11 24 3 63 8 87 10 25 3 57 7 72 9 49 9 87 16 112 21 14 3 39 7 55 10 17 3 41
7 55 9 113 20 416 102 575 156 914 312 1708 900 2272 1682 109 152 177 256
291 453 51 88 212 427 255 536 100 254 194 559 222 720 3 18 8 35 10 39 2 3
13 60 24 126 31 183 35 211 47 319 3 33 7 70 9 83 28 184 23 747 -9 982 -4 22
-9 59 -12 83 -7 55 -12 89 -25 162 -6 33 -13 74 -15 90 -3 17 -14 71 -25 120
-12 50 -22 98 -24 107 -2 10 -16 62 -30 115 -253 932 -809 1786 -1555 2387
-357 288 -671 478 -1105 671 -243 108 -723 254 -951 289 -22 4 -77 13 -124 21
-255 42 -439 57 -728 59 -106 1 -194 1 -195 0z"/>
</g>
</svg>
